<?xml version="1.0" encoding="UTF-8" standalone="no"?>
<!-- Created with Inkscape (http://www.inkscape.org/) -->

<svg
   width="300"
   height="41"
   version="1.1"
   viewBox="0 0 79.375611 10.848"
   xml:space="preserve"
   id="svg7"
   sodipodi:docname="logo.svg"
   inkscape:version="1.3 (0e150ed6c4, 2023-07-21)"
   xmlns:inkscape="http://www.inkscape.org/namespaces/inkscape"
   xmlns:sodipodi="http://sodipodi.sourceforge.net/DTD/sodipodi-0.dtd"
   xmlns="http://www.w3.org/2000/svg"
   xmlns:svg="http://www.w3.org/2000/svg"><defs
     id="defs7" /><sodipodi:namedview
     id="namedview7"
     pagecolor="#505050"
     bordercolor="#eeeeee"
     borderopacity="1"
     inkscape:showpageshadow="0"
     inkscape:pageopacity="0"
     inkscape:pagecheckerboard="0"
     inkscape:deskcolor="#505050"
     inkscape:zoom="1.7224949"
     inkscape:cx="54.281729"
     inkscape:cy="46.734537"
     inkscape:window-width="1896"
     inkscape:window-height="1005"
     inkscape:window-x="10"
     inkscape:window-y="10"
     inkscape:window-maximized="1"
     inkscape:current-layer="svg7" /><style
     id="style7">.cls-1{fill:#fed136;}</style><g
     id="g8"
     transform="translate(1.2915328)"><g
       transform="matrix(0.1707,0,0,0.1707,-0.038402,-0.038407)"
       stroke-width="1.55"
       id="g7"><text
         x="43.001614"
         y="-22.484503"
         font-family="'Noto Sans Myanmar'"
         font-size="40px"
         style="line-height:1.25"
         xml:space="preserve"
         id="text1"><tspan
           x="43.001614"
           y="-22.484503"
           stroke-width="1.55"
           id="tspan1" /></text><g
         transform="matrix(0.96875,0,0,0.96875,1.0004,1)"
         id="g6"><path
           transform="matrix(0.76919,0,0,0.95622,14.163,32)"
           d="m 23.189,33.465 c -2.3425,0 -27.81,-14.704 -28.981,-16.732 -1.171,-2.028 -1.1713,-31.436 -9e-7,-33.465 1.1713,-2.0287 26.6389999,-16.732 28.9809999,-16.732 2.3425,0 27.81,14.704 28.981,16.732 1.1713,2.0287 1.1713,31.436 1e-6,33.465 -1.1713,2.0287 -26.639,16.732 -28.981,16.732 z"
           fill="#87e694"
           stroke-linecap="round"
           stroke-linejoin="round"
           stroke-width="0.775"
           id="path1" /><path
           d="M 9.707,16 C 9.678846,16.06062 9.651363,16.14766 9.624969,16.25781 9.598574,16.36797 9.573432,16.5017 9.548797,16.6582 9.499527,16.97119 9.454309,17.37238 9.412077,17.8516 9.369846,18.33078 9.332035,18.8881 9.296847,19.5078 9.261654,20.12759 9.229298,20.8101 9.201144,21.5449 9.17299,22.2797 9.148041,23.0663 9.126925,23.8906 9.105809,24.7149 9.088268,25.5785 9.074191,26.4668 9.060114,27.3551 9.04998,28.2687 9.042941,29.1953 9.0359021,30.12189 9.031222,31.0606 9.031222,32 c 0,0.9394 0.00468,1.8781 0.011719,2.8047 0.00704,0.92659 0.017173,1.8403 0.03125,2.7285 0.014077,0.8882 0.031619,1.7518 0.052734,2.5762 0.021116,0.82433 0.046065,1.6109 0.074219,2.3457 0.028154,0.7348 0.06051,1.4173 0.095703,2.0371 0.035193,0.61979 0.073003,1.1771 0.11523,1.6562 0.042231,0.47918 0.087449,0.88036 0.13672,1.1934 0.024635,0.1565 0.049777,0.29023 0.076172,0.40039 C 9.651364,47.85235 9.678846,47.93938 9.707,48 l 8.3105,-5.9648 v -20.07 z"
           fill="#39c453"
           id="path2" /><path
           d="m 54.178,16 c 0.02815,0.06062 0.05564,0.14766 0.08203,0.25781 0.0264,0.11016 0.05154,0.24389 0.07617,0.40039 0.04927,0.31299 0.09449,0.71418 0.13672,1.1934 0.04223,0.47918 0.08004,1.0365 0.11523,1.6562 0.03519,0.61979 0.06755,1.3023 0.0957,2.0371 0.02815,0.7348 0.0531,1.5214 0.07422,2.3457 0.02112,0.8243 0.03866,1.6879 0.05273,2.5762 0.01408,0.88824 0.02421,1.8019 0.03125,2.7285 0.007,0.92659 0.01172,1.8653 0.01172,2.8047 0,0.9394 -0.0047,1.8781 -0.01172,2.8047 -0.007,0.92659 -0.01717,1.8403 -0.03125,2.7285 -0.01408,0.8882 -0.03162,1.7518 -0.05273,2.5762 -0.02112,0.82433 -0.04606,1.6109 -0.07422,2.3457 -0.02815,0.73484 -0.06051,1.4173 -0.0957,2.0371 -0.03519,0.61979 -0.073,1.1771 -0.11523,1.6562 -0.04223,0.47918 -0.08745,0.88036 -0.13672,1.1934 -0.02463,0.1565 -0.04978,0.29023 -0.07617,0.40039 C 54.23363,47.85235 54.20615,47.93938 54.178,48 l -8.3105,-5.9648 v -20.07 z"
           fill="#00a621"
           id="path3" /><path
           transform="matrix(0.48246,0,0,0.59977,20.812,32)"
           d="m 23.189,-33.467 c -2.3425,10e-7 -27.81,14.706 -28.982,16.735 -1.1713,2.0287 -1.1713,31.435 0,33.463 1.1713,2.0287 26.639,16.735 28.982,16.735 z"
           fill="#d2f5d7"
           stroke-linecap="round"
           stroke-linejoin="round"
           stroke-width="0.775"
           id="path4" /><path
           d="m 32,64 c 0.05631,0 0.13077,-0.01435 0.2207,-0.04102 0.08994,-0.02666 0.19507,-0.06546 0.31641,-0.11719 0.12134,-0.05173 0.25769,-0.11621 0.4082,-0.19141 0.15051,-0.07519 0.31472,-0.16075 0.49219,-0.25781 0.35493,-0.19412 0.76157,-0.43112 1.2109,-0.70312 0.44936,-0.27201 0.94276,-0.5789 1.4688,-0.91602 0.52599,-0.33711 1.0851,-0.70432 1.6699,-1.0938 0.58481,-0.38943 1.1945,-0.8015 1.8203,-1.2305 0.62582,-0.42897 1.267,-0.87436 1.916,-1.3301 0.64902,-0.45572 1.3065,-0.92289 1.9609,-1.3926 0.6544,-0.46969 1.3072,-0.94319 1.9492,-1.4141 0.64198,-0.47088 1.273,-0.93916 1.8848,-1.3984 0.61174,-0.45928 1.2039,-0.90885 1.7676,-1.3438 0.5637,-0.4349 1.0979,-0.85422 1.5957,-1.252 0.49784,-0.39773 0.95887,-0.77331 1.373,-1.1211 0.41417,-0.34779 0.78301,-0.66807 1.0957,-0.95312 0.15635,-0.14253 0.29814,-0.27594 0.42578,-0.40039 0.12764,-0.12445 0.24119,-0.23898 0.33789,-0.34375 0.0967,-0.10477 0.17669,-0.19971 0.24024,-0.2832 0.06354,-0.08349 0.11052,-0.15618 0.13867,-0.2168 0.02815,-0.06062 0.05564,-0.14766 0.08203,-0.25781 l -8.3926,-5.707 -13.982,10.037 z"
           fill="#39c453"
           id="path5" /><path
           d="m 54.225,15.893 c -0.02321,-0.03645 -0.03821,-0.06719 -0.07031,-0.10938 -0.06354,-0.0835 -0.14353,-0.17843 -0.24024,-0.2832 -0.0967,-0.10477 -0.21025,-0.2193 -0.33789,-0.34375 -0.12764,-0.12445 -0.26943,-0.25786 -0.42578,-0.40039 -0.3127,-0.28505 -0.68153,-0.60534 -1.0957,-0.95312 -0.41417,-0.34778 -0.87521,-0.72336 -1.373,-1.1211 -0.49784,-0.39773 -1.032,-0.81706 -1.5957,-1.252 -0.5637,-0.4349 -1.1558,-0.88447 -1.7676,-1.3438 C 46.70704,9.62698 46.07598,9.1587 45.43398,8.68786 44.792,8.21699 44.13918,7.74349 43.48478,7.27376 42.83038,6.80403 42.17288,6.3369 41.52388,5.88116 40.87486,5.42544 40.23368,4.98005 39.60788,4.55106 38.98206,4.12209 38.37238,3.71002 37.78758,3.32056 37.20278,2.9311 36.64368,2.56392 36.11768,2.22676 35.59168,1.88965 35.09828,1.58275 34.64888,1.31074 34.19951,1.03873 33.79287,0.80174 33.43798,0.60761 33.26052,0.510549 33.09631,0.42499 32.94579,0.3498 32.79528,0.274607 32.65893,0.21012 32.53759,0.15839 32.41625,0.106664 32.31112,0.067865 32.22118,0.0412 32.131244,0.014538 32.05678,1.84e-4 32.00048,1.84e-4 v 11.928 l 13.982,10.037 8.1953,-5.9648 z"
           fill="#39c453"
           id="path6" /></g></g><text
       xml:space="preserve"
       style="font-style:normal;font-variant:normal;font-weight:bold;font-stretch:normal;font-size:7.05561px;font-family:'Ubuntu Mono';-inkscape-font-specification:'Ubuntu Mono, Bold';font-variant-ligatures:normal;font-variant-caps:normal;font-variant-numeric:normal;font-variant-east-asian:normal;fill:#39c453;fill-opacity:1;stroke:none;stroke-width:0.529171;stroke-linecap:round;stroke-linejoin:round"
       x="12.160126"
       y="7.8264432"
       id="text7"><tspan
         sodipodi:role="line"
         id="tspan7"
         style="font-style:normal;font-variant:normal;font-weight:bold;font-stretch:normal;font-size:7.05561px;font-family:'Ubuntu Mono';-inkscape-font-specification:'Ubuntu Mono, Bold';font-variant-ligatures:normal;font-variant-caps:normal;font-variant-numeric:normal;font-variant-east-asian:normal;fill:#39c453;fill-opacity:1;stroke:none;stroke-width:0.529171"
         x="12.160126"
         y="7.8264432">Hello! I'm Emerald</tspan></text></g></svg>
